<?xml version="1.0" standalone="no"?>
<!DOCTYPE svg PUBLIC "-//W3C//DTD SVG 20010904//EN"
 "http://www.w3.org/TR/2001/REC-SVG-20010904/DTD/svg10.dtd">
<svg version="1.0" xmlns="http://www.w3.org/2000/svg"
 width="500.000000pt" height="500.000000pt" viewBox="0 0 500.000000 500.000000"
 preserveAspectRatio="xMidYMid meet">

<g transform="translate(0.000000,500.000000) scale(0.100000,-0.100000)"
fill="#000000" stroke="none">
<path d="M420 2460 l0 -580 2080 0 2080 0 0 580 0 580 -2080 0 -2080 0 0 -580z
m4140 -5 l0 -555 -2060 0 -2060 0 0 555 0 555 2060 0 2060 0 0 -555z"/>
<path d="M1495 2766 c-11 -8 -18 -26 -18 -46 0 -39 24 -60 69 -60 46 0 64 9
75 37 9 25 -2 60 -25 75 -18 13 -81 9 -101 -6z"/>
<path d="M750 2733 c0 -5 10 -13 23 -18 21 -10 22 -15 25 -160 2 -82 0 -183
-3 -224 -7 -69 -9 -74 -36 -84 -50 -19 -32 -27 61 -27 89 0 119 12 60 24 -20
4 -34 14 -40 31 -12 30 -14 352 -3 341 5 -4 37 -94 73 -199 l65 -192 40 0 40
0 55 198 c30 108 58 197 62 197 9 0 11 -341 2 -364 -3 -9 -15 -16 -25 -16 -10
0 -19 -4 -19 -10 0 -6 52 -10 135 -10 83 0 135 4 135 10 0 6 -9 10 -20 10 -12
0 -22 9 -25 23 -3 12 -4 117 -3 232 3 207 3 210 26 220 44 19 20 26 -90 23
l-111 -3 -44 -137 c-24 -76 -47 -138 -51 -138 -4 0 -32 62 -63 138 l-55 137
-107 3 c-59 1 -107 -1 -107 -5z"/>
<path d="M1840 2731 c0 -5 10 -11 23 -13 22 -3 22 -4 25 -213 1 -115 0 -220
-3 -232 -3 -13 -16 -25 -30 -29 -51 -13 -22 -24 60 -24 84 0 113 12 56 23 -16
3 -32 14 -36 24 -11 28 -19 353 -9 353 5 0 40 -90 78 -200 l69 -200 37 0 38 0
52 188 c29 103 56 194 61 202 5 9 9 -66 9 -173 l0 -187 -27 -13 c-26 -11 -22
-12 45 -15 39 -2 105 -2 145 0 66 3 70 4 44 15 l-27 13 2 232 3 233 23 3 c12
2 22 8 22 13 0 5 -50 9 -114 9 l-113 0 -36 -112 c-20 -62 -39 -126 -43 -141
-3 -15 -11 -26 -16 -25 -6 2 -35 65 -65 141 l-55 137 -109 0 c-61 0 -109 -4
-109 -9z"/>
<path d="M1540 2623 c-72 -5 -110 -13 -110 -23 0 -6 6 -10 14 -10 22 0 26 -24
26 -175 0 -157 -3 -175 -31 -175 -10 0 -19 -4 -19 -10 0 -6 50 -10 130 -10
118 0 162 9 110 23 -19 5 -20 14 -20 196 l0 191 -27 -2 c-16 -1 -48 -3 -73 -5z"/>
<path d="M2615 2615 c-42 -15 -85 -56 -85 -81 0 -24 38 -54 69 -54 32 0 43 11
60 59 32 96 101 92 101 -5 0 -42 -2 -46 -37 -60 -20 -9 -65 -25 -100 -35 -73
-23 -96 -49 -95 -109 1 -50 15 -76 55 -100 42 -26 90 -25 137 1 l38 21 21 -21
c24 -24 89 -28 154 -10 42 11 48 29 15 44 -22 10 -23 17 -28 151 -6 157 -12
173 -77 200 -42 18 -176 17 -228 -1z m145 -244 c0 -92 -11 -118 -44 -105 -22
8 -40 75 -32 118 6 32 45 76 67 76 5 0 9 -40 9 -89z"/>
<path d="M3085 2623 c-59 -5 -85 -12 -85 -23 0 -6 6 -10 14 -10 22 0 26 -24
26 -175 0 -157 -3 -175 -31 -175 -10 0 -19 -4 -19 -10 0 -6 52 -10 135 -10 83
0 135 4 135 10 0 6 -11 10 -24 10 -13 0 -27 7 -30 16 -10 27 -7 272 4 279 6 4
23 -7 37 -24 35 -39 64 -39 97 0 73 87 -25 166 -104 84 -36 -37 -50 -33 -50
13 0 23 -4 24 -105 15z"/>
<path d="M3505 2611 c-51 -24 -81 -56 -100 -110 -42 -121 9 -255 108 -282 61
-16 161 -7 194 17 35 26 75 83 67 96 -4 6 -19 -4 -34 -21 -54 -59 -122 -53
-155 14 -27 55 -29 218 -2 258 10 15 24 27 33 27 16 0 44 -56 44 -90 0 -30 40
-46 75 -29 57 28 49 89 -15 121 -48 25 -161 24 -215 -1z"/>
<path d="M3917 2615 c-102 -36 -120 -120 -29 -132 38 -5 42 -3 53 23 31 78 39
93 59 99 33 11 50 -12 50 -66 0 -56 -10 -64 -115 -94 -76 -22 -115 -60 -115
-110 0 -101 115 -160 199 -102 l34 23 23 -23 c18 -18 34 -23 74 -23 79 0 160
43 98 52 -30 4 -36 31 -37 171 -1 65 -6 127 -12 139 -28 51 -189 77 -282 43z
m133 -250 c0 -80 -3 -97 -17 -102 -27 -10 -53 32 -53 87 0 38 6 55 26 79 14
17 30 31 35 31 5 0 9 -43 9 -95z"/>
</g>
</svg>
