<?xml version="1.0" standalone="no"?>
<!DOCTYPE svg PUBLIC "-//W3C//DTD SVG 20010904//EN"
 "http://www.w3.org/TR/2001/REC-SVG-20010904/DTD/svg10.dtd">
<svg version="1.0" xmlns="http://www.w3.org/2000/svg"
 width="500.000000pt" height="500.000000pt" viewBox="0 0 500.000000 500.000000"
 preserveAspectRatio="xMidYMid meet">

<g transform="translate(0.000000,500.000000) scale(0.100000,-0.100000)"
fill="#000000" stroke="none">
<path d="M420 2460 l0 -580 2080 0 2080 0 0 580 0 580 -2080 0 -2080 0 0 -580z
m4140 -5 l0 -555 -2060 0 -2060 0 0 555 0 555 2060 0 2060 0 0 -555z"/>
<path d="M1795 2753 c-117 -9 -155 -23 -105 -36 19 -5 20 -14 20 -252 0 -238
-1 -247 -20 -252 -52 -14 -9 -23 105 -23 116 0 155 9 105 25 -18 6 -20 15 -20
86 0 43 2 79 3 79 2 0 16 -31 31 -69 40 -102 58 -115 167 -119 89 -4 105 2 73
29 -24 20 -66 84 -119 182 l-48 88 29 30 c15 16 52 37 81 46 28 9 50 20 47 25
-6 9 -85 11 -109 2 -8 -4 -46 -50 -83 -103 l-67 -96 -3 183 c-3 206 8 183 -87
175z"/>
<path d="M940 2723 c-120 -21 -179 -105 -150 -212 14 -52 49 -84 143 -133 62
-33 82 -49 93 -74 25 -60 -11 -111 -73 -101 -45 8 -84 44 -120 113 -40 76 -53
71 -46 -18 4 -50 10 -77 21 -86 52 -40 210 -46 281 -10 82 42 112 138 71 224
-18 36 -33 48 -103 84 -104 54 -137 84 -137 125 0 39 27 65 67 65 42 0 77 -31
108 -95 14 -30 30 -55 35 -55 6 0 10 33 10 75 l0 74 -37 10 c-51 13 -132 20
-163 14z"/>
<path d="M1392 2599 c-64 -12 -108 -44 -132 -95 -19 -37 -21 -58 -18 -132 5
-143 51 -187 198 -187 98 0 141 18 173 73 25 42 15 53 -17 19 -28 -30 -80 -43
-119 -28 -35 14 -67 67 -67 113 l0 37 113 3 112 3 3 45 c7 107 -108 177 -246
149z m86 -44 c13 -29 16 -111 5 -118 -5 -3 -23 -8 -42 -12 l-33 -7 4 65 c5 90
41 128 66 72z"/>
<path d="M2333 2599 c-90 -17 -134 -59 -154 -146 -15 -64 -4 -153 24 -194 38
-56 80 -74 177 -74 96 0 141 19 173 74 25 43 12 56 -21 20 -63 -70 -160 -39
-181 59 -5 26 -7 50 -3 54 4 4 57 9 117 10 l110 3 0 52 c-1 62 -24 100 -76
124 -43 21 -112 29 -166 18z m84 -49 c17 -33 17 -109 0 -116 -7 -2 -27 -6 -43
-7 -29 -2 -29 -2 -26 48 6 97 39 134 69 75z"/>
<path d="M2894 2595 c-16 -7 -38 -24 -47 -39 -21 -32 -37 -26 -37 15 0 33 -4
34 -122 22 -47 -4 -68 -10 -68 -19 0 -8 7 -14 15 -14 22 0 26 -32 23 -190 -3
-139 -4 -145 -25 -155 -13 -5 -23 -13 -23 -17 0 -5 61 -8 135 -8 83 0 135 4
135 10 0 6 -8 10 -18 10 -37 0 -42 20 -42 156 0 80 4 135 10 139 6 4 23 -7 37
-24 34 -39 57 -39 94 -2 62 63 12 150 -67 116z"/>
<path d="M3324 2600 c-18 -4 -45 -17 -62 -29 -38 -27 -38 -26 -46 5 -7 26 -7
26 -84 20 -87 -8 -112 -14 -112 -26 0 -4 9 -10 20 -13 19 -5 20 -14 20 -171
l0 -166 -25 -6 c-57 -14 -18 -24 95 -24 66 0 120 4 120 9 0 5 -7 14 -15 21
-12 10 -15 38 -15 135 0 139 11 185 44 185 42 0 46 -16 46 -172 0 -123 -3
-150 -15 -154 -40 -16 -5 -24 100 -24 105 0 140 8 100 24 -12 4 -15 30 -15
146 0 78 5 150 10 161 16 29 58 25 70 -7 6 -14 10 -86 10 -160 0 -110 -3 -136
-15 -140 -40 -16 -4 -24 105 -24 119 0 141 6 98 25 -22 10 -23 16 -28 165 -5
161 -12 190 -52 211 -39 21 -115 14 -158 -15 -42 -27 -60 -32 -60 -16 0 28
-83 52 -136 40z"/>
<path d="M4005 2605 c-5 -2 -27 -6 -48 -10 -45 -7 -105 -57 -123 -102 -23 -53
-18 -171 9 -223 30 -61 71 -83 166 -87 65 -4 83 -1 121 19 42 22 90 81 76 95
-3 3 -17 -6 -30 -20 -13 -14 -39 -29 -58 -32 -69 -13 -116 28 -126 110 l-5 45
118 0 117 0 -4 60 c-6 91 -50 129 -163 144 -22 3 -44 3 -50 1z m55 -51 c12
-30 13 -111 3 -117 -5 -3 -23 -8 -42 -12 l-33 -7 4 65 c4 65 18 97 44 97 8 0
19 -12 24 -26z"/>
</g>
</svg>
